<svg xmlns="http://www.w3.org/2000/svg" xmlns:xlink="http://www.w3.org/1999/xlink" width="500" zoomAndPan="magnify" viewBox="0 0 375 374.999991" height="500" preserveAspectRatio="xMidYMid meet" version="1.0"><defs><clipPath id="30fc0bf534"><path d="M 82.324219 106.460938 L 292.324219 106.460938 L 292.324219 268.460938 L 82.324219 268.460938 Z M 82.324219 106.460938 " clip-rule="nonzero"/></clipPath></defs><g clip-path="url(#30fc0bf534)"><path fill="#04a3ea" d="M 140.140625 173.832031 C 136.011719 176.207031 134.566406 180.234375 134.085938 184.882812 L 110.957031 171.527344 L 101.457031 177 L 101.457031 182.851562 L 133.84375 201.539062 L 133.84375 232.167969 C 133.84375 238.5 138.730469 242.148438 144.304688 245.453125 L 181.269531 266.792969 C 186.742188 269.921875 192.351562 267.515625 197.996094 264.347656 L 234.957031 243.011719 C 240.363281 239.84375 241.085938 233.785156 241.152344 227.316406 L 241.152344 201.539062 L 283.417969 177.136719 C 294.328125 170.839844 297.148438 168.257812 283.417969 160.34375 L 197.238281 110.613281 C 187.980469 105.242188 186.398438 105.621094 176.898438 111.09375 L 91.582031 160.34375 C 77.847656 168.257812 80.707031 170.839844 91.582031 177.136719 L 91.582031 200.335938 C 86.625 202.332031 85.832031 209.074219 90.238281 212.171875 C 89.652344 212.964844 89.273438 213.964844 89.273438 215.0625 L 89.273438 237.605469 L 98.910156 237.605469 L 98.910156 215.0625 C 98.910156 213.996094 98.566406 213 97.949219 212.171875 C 101.941406 209.386719 101.835938 203.671875 97.671875 200.886719 L 96.605469 200.335938 L 96.605469 174.210938 L 180.890625 125.546875 C 188.601562 121.074219 187.53125 121.796875 197.546875 127.578125 L 197.546875 152.289062 L 193.726562 150.085938 C 188.253906 146.953125 182.644531 149.363281 177 152.53125 L 140.109375 173.832031 Z M 241.085938 152.703125 L 262.558594 165.09375 C 267.550781 167.984375 269.445312 168.363281 266.65625 169.980469 L 241.152344 184.710938 L 241.085938 152.667969 Z M 226.59375 169.085938 C 237.402344 175.3125 237.332031 175.898438 226.59375 169.085938 Z M 148.402344 221.949219 L 148.402344 195 C 148.4375 187.359375 150.261719 184.882812 156.628906 181.128906 L 179.238281 168.085938 C 185.675781 164.402344 188.738281 164.09375 195.34375 167.878906 L 212.039062 177.515625 L 212.039062 136.011719 L 226.59375 144.40625 L 226.59375 221.570312 C 226.5625 228.96875 225.320312 231.789062 218.714844 235.644531 L 195.378906 249.136719 L 187.5 253.679688 L 179.273438 248.929688 L 156.660156 235.886719 C 150.261719 232.167969 148.4375 229.65625 148.4375 222.015625 Z M 148.402344 221.949219 " fill-opacity="1" fill-rule="evenodd"/></g><path fill="#000000" d="M 180.820312 183.917969 L 165.816406 192.589844 C 163.269531 194.070312 162.960938 196.894531 162.925781 199.886719 L 162.925781 219.261719 C 162.925781 222.1875 165.230469 223.875 167.8125 225.421875 L 168.5 225.835938 L 184.574219 235.128906 L 187.464844 236.78125 L 209.144531 224.253906 C 211.660156 222.808594 212.003906 219.984375 212.039062 216.992188 L 212.039062 194.242188 L 190.355469 181.75 L 187.464844 180.097656 L 180.789062 183.953125 Z M 180.820312 183.917969 " fill-opacity="1" fill-rule="evenodd"/></svg>